<svg class="svg-icon" style="width: 1em; height: 1em;vertical-align: middle;fill: currentColor;overflow: hidden;" viewBox="0 0 1024 1024" version="1.1" xmlns="http://www.w3.org/2000/svg"><path d="M938.666667 490.666667c0-59.733333-46.933333-106.666667-106.666667-106.666667-25.6 0-51.2 8.533333-68.266667 25.6-64-38.4-140.8-64-230.4-68.266667l46.933334-170.666666L725.333333 213.333333a85.333333 85.333333 0 0 0 85.333334 85.333334 85.333333 85.333333 0 0 0 85.333333-85.333334 85.333333 85.333333 0 0 0-85.333333-85.333333c-29.866667 0-59.733333 17.066667-72.533334 42.666667l-170.666666-42.666667c-12.8-4.266667-21.333333 4.266667-25.6 17.066667L490.666667 341.333333c-85.333333 4.266667-166.4 29.866667-230.4 68.266667-17.066667-17.066667-42.666667-25.6-68.266667-25.6C132.266667 384 85.333333 430.933333 85.333333 490.666667c0 38.4 17.066667 68.266667 46.933334 89.6l-4.266667 38.4c0 153.6 170.666667 277.333333 384 277.333333s384-123.733333 384-277.333333l-4.266667-38.4c29.866667-21.333333 46.933333-51.2 46.933334-89.6m-554.666667 12.8c29.866667 0 51.2 25.6 51.2 51.2s-21.333333 51.2-51.2 51.2-51.2-21.333333-51.2-51.2 21.333333-51.2 51.2-51.2m290.133333 230.4c-76.8 46.933333-247.466667 46.933333-324.266666 0-8.533333-8.533333-12.8-21.333333-4.266667-29.866667 8.533333-8.533333 21.333333-12.8 29.866667-4.266667 51.2 38.4 221.866667 38.4 273.066666 0 8.533333-8.533333 21.333333-4.266667 29.866667 4.266667 8.533333 8.533333 4.266667 21.333333-4.266667 29.866667m-34.133333-128c-29.866667 0-51.2-25.6-51.2-51.2 0-29.866667 25.6-51.2 51.2-51.2 29.866667 0 51.2 25.6 51.2 51.2 0 29.866667-21.333333 51.2-51.2 51.2z" fill="white" /></svg>